HIERARCHY
ROOT hip
{
	OFFSET 0.000000 0.000000 0.000000 
	CHANNELS 6 Xposition Yposition Zposition Zrotation Yrotation Xrotation
	JOINT abdomen
	{
		OFFSET 0.000000 20.688101 -0.731520 
		CHANNELS 3 Zrotation Xrotation Yrotation
		JOINT chest
		{
			OFFSET 0.000000 11.704300 -0.487680 
			CHANNELS 3 Zrotation Xrotation Yrotation
			JOINT neck
			{
				OFFSET 0.000000 22.189400 -2.194560 
				CHANNELS 3 Zrotation Xrotation Yrotation
				JOINT head
				{
					OFFSET -0.243840 7.071330 1.219200 
					CHANNELS 3 Zrotation Xrotation Yrotation
					End Site
					{
						OFFSET 1.000000 0.000000 0.000000 
					}
				}
			}
			JOINT rCollar
			{
				OFFSET -2.682240 19.263399 -4.876800 
				CHANNELS 3 Zrotation Xrotation Yrotation
				JOINT rShldr
				{
					OFFSET -8.778240 -1.950730 1.463040 
					CHANNELS 3 Zrotation Xrotation Yrotation
					JOINT rForeArm
					{
						OFFSET -28.174200 -1.711500 0.487680 
						CHANNELS 3 Zrotation Xrotation Yrotation
						JOINT rHand
						{
							OFFSET -22.587900 0.773209 7.071360 
							CHANNELS 3 Zrotation Xrotation Yrotation
							End Site
							{
								OFFSET -1.782710 -1.182140 1.430490 
							}
						}
					}
				}
			}
			JOINT lCollar
			{
				OFFSET 2.682240 19.263399 -4.876800 
				CHANNELS 3 Zrotation Xrotation Yrotation
				JOINT lShldr
				{
					OFFSET 8.778240 -1.950730 1.463040 
					CHANNELS 3 Zrotation Xrotation Yrotation
					JOINT lForeArm
					{
						OFFSET 28.174200 -1.711500 0.487680 
						CHANNELS 3 Zrotation Xrotation Yrotation
						JOINT lHand
						{
							OFFSET 22.587900 0.773209 7.071360 
							CHANNELS 3 Zrotation Xrotation Yrotation
							End Site
							{
								OFFSET 1.782710 -1.182140 1.430490 
							}
						}
					}
				}
			}
		}
	}
	JOINT rButtock
	{
		OFFSET -8.778240 4.350840 1.219200 
		CHANNELS 3 Zrotation Xrotation Yrotation
		JOINT rThigh
		{
			OFFSET 0.000000 -1.706870 -2.194560 
			CHANNELS 3 Zrotation Xrotation Yrotation
			JOINT rShin
			{
				OFFSET 0.000000 -36.819901 0.731520 
				CHANNELS 3 Zrotation Xrotation Yrotation
				JOINT rFoot
				{
					OFFSET 0.731520 -45.110401 -5.120640 
					CHANNELS 3 Zrotation Xrotation Yrotation
					End Site
					{
						OFFSET -1.122100 -3.699640 12.103000 
					}
				}
			}
		}
	}
	JOINT lButtock
	{
		OFFSET 8.778240 4.350840 1.219200 
		CHANNELS 3 Zrotation Xrotation Yrotation
		JOINT lThigh
		{
			OFFSET 0.000000 -1.706870 -2.194560 
			CHANNELS 3 Zrotation Xrotation Yrotation
			JOINT lShin
			{
				OFFSET 0.000000 -36.819901 0.731520 
				CHANNELS 3 Zrotation Xrotation Yrotation
				JOINT lFoot
				{
					OFFSET -0.731520 -45.110401 -5.120640 
					CHANNELS 3 Zrotation Xrotation Yrotation
					End Site
					{
						OFFSET 1.122100 -3.699640 12.103000 
					}
				}
			}
		}
	}
}
MOTION
Frames: 13
Frame Time: 0.008333
33.523998 83.924004 2.950090 4.185800 104.333000 10.661800 1.170500 -1.997450 3.456380 3.543420 0.241709 1.037640 3.710600 -4.348400 -1.328660 12.108300 39.409100 -2.346330 0.000000 0.000000 -0.000000 50.652802 40.336102 7.189430 -28.432301 -35.991100 76.991203 -0.299134 -15.351200 -2.211380 0.000000 0.000000 -0.000000 -13.452100 6.326400 -24.617500 25.662300 -46.899101 -97.486801 2.192700 -38.135899 6.335450 -0.000000 0.000000 -0.000000 6.572310 -4.199210 20.789700 0.023937 9.572400 0.409282 -14.104900 -7.910650 -54.577301 0.000000 0.000000 0.000000 2.137690 -18.890400 -18.248699 0.114926 19.722200 -0.360874 1.823490 -6.338190 6.490490 
33.447601 83.938797 2.980300 4.388000 104.435997 10.835300 1.143520 -1.764840 3.287650 3.456370 0.229310 0.988593 3.695230 -4.203870 -1.357740 12.491700 39.254299 -2.494960 0.000000 0.000000 -0.000000 50.716999 41.039101 7.519110 -28.424299 -36.426800 77.719200 -0.281623 -14.859800 -2.137560 0.000000 0.000000 -0.000000 -13.856500 6.674790 -24.683599 25.523500 -47.140099 -98.021400 2.110720 -37.522800 6.198310 -0.000000 0.000000 -0.000000 6.619710 -4.335490 20.678499 0.023671 9.604880 0.408391 -13.914900 -7.756790 -54.577599 0.000000 0.000000 0.000000 2.204430 -19.037600 -18.180799 0.115353 19.727699 -0.359866 1.779210 -6.298930 6.289680 
33.339199 83.945396 3.015250 4.635400 104.569000 11.179500 1.119980 -1.539210 3.120050 3.376640 0.198349 0.940489 3.664290 -4.043840 -1.397500 12.929500 39.112499 -2.670870 0.000000 0.000000 0.000000 50.881699 41.637798 7.848240 -28.408800 -36.855301 78.443703 -0.253374 -14.099500 -2.023560 0.000000 0.000000 0.000000 -14.282100 7.038930 -24.736601 25.373199 -47.393299 -98.588203 2.000040 -36.691700 6.014050 -0.000000 0.000000 -0.000000 6.671190 -4.475980 20.578600 0.023400 9.615670 0.406364 -13.698900 -7.592330 -54.573502 0.000000 0.000000 0.000000 2.279020 -19.199499 -18.106600 0.115917 19.735300 -0.359099 1.736950 -6.260680 6.096700 
33.223598 83.960503 3.048400 4.807800 104.627998 11.473100 1.089470 -1.340270 3.007680 3.321480 0.156612 0.908559 3.616710 -3.858650 -1.460310 13.413700 38.952301 -2.896730 0.000000 0.000000 0.000000 50.975201 42.248402 8.222370 -28.386499 -37.265099 79.146599 -0.215347 -13.104000 -1.874780 0.000000 0.000000 0.000000 -14.734600 7.426000 -24.811001 25.210300 -47.661201 -99.189400 1.851450 -35.567600 5.767810 -0.000000 0.000000 -0.000000 6.729530 -4.615150 20.548700 0.023079 9.579670 0.401247 -13.397100 -7.379150 -54.564899 0.000000 0.000000 0.000000 2.369890 -19.364901 -18.027399 0.116522 19.741899 -0.358479 1.708400 -6.219740 5.972720 
33.131802 83.972099 3.083980 4.925700 104.620003 11.623600 1.045770 -1.171910 2.968140 3.297750 0.092359 0.898194 3.547250 -3.627210 -1.552090 13.967400 38.748100 -3.185460 0.000000 0.000000 0.000000 50.981201 42.901299 8.655510 -28.359699 -37.658600 79.822701 -0.175692 -11.885100 -1.694370 0.000000 0.000000 0.000000 -15.230900 7.871400 -24.912600 25.030899 -47.946602 -99.836403 1.652210 -33.970901 5.428790 -0.000000 0.000000 -0.000000 6.796180 -4.756050 20.614000 0.022593 9.482180 0.391611 -12.963700 -7.086750 -54.550499 0.000000 0.000000 0.000000 2.484700 -19.533300 -17.933701 0.117190 19.743401 -0.357852 1.696600 -6.173110 5.936250 
33.044102 83.982697 3.160890 5.245500 104.527000 12.008400 0.994729 -1.024110 2.971490 3.295520 0.006041 0.900829 3.458780 -3.360850 -1.665350 14.584800 38.521999 -3.521690 0.000000 0.000000 0.000000 50.979500 43.533699 9.123990 -28.328899 -38.042301 80.479897 -0.138400 -10.423700 -1.480950 0.000000 0.000000 0.000000 -15.762000 8.359840 -25.024799 24.833799 -48.245800 -100.528000 1.432740 -31.992701 5.030090 -0.000000 0.000000 -0.000000 6.870180 -4.899820 20.740000 0.021950 9.339270 0.378811 -12.440900 -6.742280 -54.532600 0.000000 0.000000 0.000000 2.617380 -19.710100 -17.828300 0.117957 19.742500 -0.357313 1.695130 -6.123500 5.953900 
32.940399 84.001503 3.266160 5.734000 104.370003 12.669800 0.943599 -0.895807 3.000450 3.306900 -0.076257 0.910756 3.362250 -3.098550 -1.792340 15.215100 38.313599 -3.885860 0.000000 0.000000 -0.000000 50.939602 44.122700 9.619720 -28.293699 -38.411999 81.117104 -0.099346 -8.706820 -1.233050 0.000000 0.000000 -0.000000 -16.295000 8.822280 -25.148300 24.623699 -48.551300 -101.247002 1.236970 -29.966000 4.643610 -0.000000 0.000000 -0.000000 6.950920 -5.038010 20.896299 0.021296 9.171920 0.365067 -11.900100 -6.394080 -54.515499 0.000000 0.000000 0.000000 2.755520 -19.891800 -17.729900 0.118746 19.746500 -0.357132 1.701430 -6.075800 6.009030 
32.824402 84.017097 3.336930 6.110300 104.248001 13.217600 0.899855 -0.785917 3.037800 3.323930 -0.128455 0.922265 3.268150 -2.879280 -1.925330 15.809000 38.162300 -4.259410 0.000000 0.000000 -0.000000 50.832500 44.645199 10.133200 -28.253700 -38.763401 81.733200 -0.055733 -6.721530 -0.949051 0.000000 0.000000 -0.000000 -16.797600 9.189840 -25.282400 24.405899 -48.856602 -101.973999 1.088210 -28.225300 4.326350 -0.000000 0.000000 -0.000000 7.037350 -5.162350 21.052000 0.020819 9.001160 0.352589 -11.412600 -6.090450 -54.502201 0.000000 0.000000 0.000000 2.886440 -20.075199 -17.657400 0.119480 19.762600 -0.357579 1.713010 -6.034900 6.084980 
32.723701 84.023903 3.391930 6.401700 104.126999 13.635800 0.861985 -0.705105 3.081340 3.348890 -0.139528 0.934408 3.183230 -2.718860 -2.068530 16.358200 38.096001 -4.654000 0.000000 0.000000 -0.000000 50.655399 45.100800 10.664300 -28.211599 -39.077400 82.296097 -0.003880 -4.092330 -0.575950 0.000000 0.000000 -0.000000 -17.273199 9.430410 -25.418301 24.173901 -49.172699 -102.731003 0.974564 -26.820299 4.076210 -0.000000 0.000000 -0.000000 7.133380 -5.273470 21.208500 0.020584 8.822800 0.341348 -10.970400 -5.826650 -54.495399 0.000000 0.000000 0.000000 3.007490 -20.264999 -17.628700 0.120135 19.793301 -0.358881 1.733220 -6.001500 6.196640 
32.640800 84.023804 3.458240 6.688700 103.967003 14.049400 0.827125 -0.650300 3.139460 3.384540 -0.124742 0.950036 3.100320 -2.594700 -2.223980 16.889500 38.087399 -5.075330 0.000000 0.000000 -0.000000 50.424500 45.499599 11.215400 -28.169701 -39.365299 82.812401 0.025631 -0.949911 -0.133530 0.000000 0.000000 -0.000000 -17.735701 9.585580 -25.558100 23.925400 -49.497601 -103.522003 0.877866 -25.586800 3.859690 -0.000000 0.000000 -0.000000 7.238150 -5.374820 21.378799 0.020474 8.628890 0.330372 -10.544300 -5.582800 -54.492001 0.000000 0.000000 0.000000 3.124740 -20.461000 -17.629601 0.120755 19.834499 -0.360843 1.761960 -5.973170 6.346430 
32.560699 84.021500 3.527740 7.101500 103.807999 14.600400 0.800807 -0.599804 3.210760 3.423620 -0.097453 0.969143 3.008730 -2.488100 -2.380690 17.407101 38.093700 -5.496010 0.000000 0.000000 -0.000000 50.141300 45.834400 11.779000 -28.125401 -39.666302 83.342300 0.013607 1.958630 0.275185 0.000000 0.000000 -0.000000 -18.169399 9.697080 -25.716999 23.675699 -49.807999 -104.295998 0.799680 -24.539400 3.678760 -0.000000 0.000000 -0.000000 7.343190 -5.462490 21.550301 0.020460 8.434800 0.320454 -10.174200 -5.384180 -54.485199 0.000000 0.000000 0.000000 3.238650 -20.652399 -17.630899 0.121366 19.883900 -0.363101 1.791740 -5.950110 6.499030 
32.477501 84.021500 3.591650 7.606100 103.727997 15.237800 0.788480 -0.531925 3.293870 3.458870 -0.071016 0.991721 2.897850 -2.380380 -2.527680 17.913700 38.072701 -5.887740 0.000000 0.000000 0.000000 49.808201 46.098400 12.347300 -28.071899 -40.016602 83.951401 -0.018559 3.886250 0.547024 0.000000 0.000000 0.000000 -18.557600 9.806380 -25.910801 23.443199 -50.082401 -105.000999 0.741891 -23.693001 3.535820 -0.000000 0.000000 -0.000000 7.439840 -5.532670 21.710199 0.020531 8.255860 0.312384 -9.899850 -5.255960 -54.467499 0.000000 0.000000 0.000000 3.350080 -20.828400 -17.603100 0.121995 19.938999 -0.365291 1.815110 -5.932570 6.619110 
32.392601 84.023598 3.644620 7.976800 103.700996 15.715000 0.804485 -0.438418 3.409420 3.491840 -0.046835 1.023860 2.752360 -2.264160 -2.671800 18.438801 37.989700 -6.265660 0.000000 0.000000 -0.000000 49.491798 46.237900 12.818100 -28.000799 -40.429600 84.680397 -0.036493 4.538610 0.639329 0.000000 0.000000 -0.000000 -18.895599 9.895480 -26.174700 23.237600 -50.318199 -105.612999 0.703566 -23.086800 3.435340 -0.000000 0.000000 -0.000000 7.536840 -5.559520 21.851601 0.020886 8.063250 0.306128 -9.761570 -5.243220 -54.428001 0.000000 0.000000 0.000000 3.471620 -20.990400 -17.537901 0.122724 20.008900 -0.367907 1.831390 -5.926010 6.699050 
